<svg version="1.1" viewBox="0.0 0.0 345.6010498687664 345.6010498687664" fill="none" stroke="none" stroke-linecap="square" stroke-miterlimit="10" xmlns:xlink="http://www.w3.org/1999/xlink" xmlns="http://www.w3.org/2000/svg"><clipPath id="p.0"><path d="m0 0l345.60104 0l0 345.60104l-345.60104 0l0 -345.60104z" clip-rule="nonzero"/></clipPath><g clip-path="url(#p.0)"><path fill="#000000" fill-opacity="0.0" d="m0 0l345.60104 0l0 345.60104l-345.60104 0z" fill-rule="evenodd"/><path fill="#efefef" d="m52.7994 20.802599l0 0c0 -8.836997 7.163803 -16.0008 16.000801 -16.0008l207.99841 0c4.2436523 0 8.313538 1.6857939 11.31427 4.6865253c3.0007324 3.0007324 4.6865234 7.0705986 4.6865234 11.314274l0 303.99838c0 8.837006 -7.1638184 16.000793 -16.000793 16.000793l-207.99841 0l0 0c-8.836998 0 -16.000801 -7.163788 -16.000801 -16.000793z" fill-rule="evenodd"/><path stroke="#000000" stroke-width="8.0" stroke-linejoin="round" stroke-linecap="butt" d="m52.7994 20.802599l0 0c0 -8.836997 7.163803 -16.0008 16.000801 -16.0008l207.99841 0c4.2436523 0 8.313538 1.6857939 11.31427 4.6865253c3.0007324 3.0007324 4.6865234 7.0705986 4.6865234 11.314274l0 303.99838c0 8.837006 -7.1638184 16.000793 -16.000793 16.000793l-207.99841 0l0 0c-8.836998 0 -16.000801 -7.163788 -16.000801 -16.000793z" fill-rule="evenodd"/></g></svg>