<svg version="1.1" viewBox="0.0 0.0 345.6010498687664 345.6010498687664" fill="none" stroke="none" stroke-linecap="square" stroke-miterlimit="10" xmlns:xlink="http://www.w3.org/1999/xlink" xmlns="http://www.w3.org/2000/svg"><clipPath id="p.0"><path d="m0 0l345.60104 0l0 345.60104l-345.60104 0l0 -345.60104z" clip-rule="nonzero"/></clipPath><g clip-path="url(#p.0)"><path fill="#000000" fill-opacity="0.0" d="m0 0l345.60104 0l0 345.60104l-345.60104 0z" fill-rule="evenodd"/><path fill="#f3f3f3" d="m60.680714 71.30083l0 0c0 -24.230953 50.172306 -43.874016 112.06299 -43.874016c61.890686 0 112.063 19.643064 112.063 43.874016l-21.937012 0l0 0c0 -12.1154785 -40.350784 -21.937012 -90.12599 -21.937012c-49.7752 0 -90.12598 9.821533 -90.12598 21.937012z" fill-rule="evenodd"/><path stroke="#000000" stroke-width="4.0" stroke-linejoin="round" stroke-linecap="butt" d="m60.680714 71.30083l0 0c0 -24.230953 50.172306 -43.874016 112.06299 -43.874016c61.890686 0 112.063 19.643064 112.063 43.874016l-21.937012 0l0 0c0 -12.1154785 -40.350784 -21.937012 -90.12599 -21.937012c-49.7752 0 -90.12598 9.821533 -90.12598 21.937012z" fill-rule="evenodd"/><path fill="#f3f3f3" d="m284.81232 128.4816l0 0c0 24.230942 -50.172302 43.87401 -112.06299 43.87401c-61.890686 0 -112.06299 -19.643066 -112.06299 -43.87401l21.937008 0l0 0c0 12.115463 40.350777 21.936996 90.125984 21.936996c49.775208 0 90.12598 -9.821533 90.12598 -21.936996z" fill-rule="evenodd"/><path stroke="#000000" stroke-width="4.0" stroke-linejoin="round" stroke-linecap="butt" d="m284.81232 128.4816l0 0c0 24.230942 -50.172302 43.87401 -112.06299 43.87401c-61.890686 0 -112.06299 -19.643066 -112.06299 -43.87401l21.937008 0l0 0c0 12.115463 40.350777 21.936996 90.125984 21.936996c49.775208 0 90.12598 -9.821533 90.12598 -21.936996z" fill-rule="evenodd"/><path fill="#efefef" d="m60.680714 71.387726l21.700787 0l0 57.039368l-21.700787 0z" fill-rule="evenodd"/><path stroke="#000000" stroke-width="4.0" stroke-linejoin="round" stroke-linecap="butt" d="m60.680714 71.387726l21.700787 0l0 57.039368l-21.700787 0z" fill-rule="evenodd"/><path fill="#efefef" d="m263.09995 71.387726l21.700775 0l0 57.039368l-21.700775 0z" fill-rule="evenodd"/><path stroke="#000000" stroke-width="4.0" stroke-linejoin="round" stroke-linecap="butt" d="m263.09995 71.387726l21.700775 0l0 57.039368l-21.700775 0z" fill-rule="evenodd"/><path fill="#efefef" d="m58.47601 172.3657l0 -139.65355l33.165356 139.65355z" fill-rule="evenodd"/><path fill="#efefef" d="m59.839188 32.710438l0 108.346466l33.16535 -108.346466z" fill-rule="evenodd"/><path fill="#efefef" d="m287.12692 172.3657l0 -139.65355l-33.165344 139.65355z" fill-rule="evenodd"/><path fill="#efefef" d="m285.76376 32.710438l0 108.346466l-33.16536 -108.346466z" fill-rule="evenodd"/><path fill="#efefef" d="m59.839188 55.24133l21.700783 0l0 79.18109l-21.700783 0z" fill-rule="evenodd"/><path fill="#efefef" d="m264.36304 60.315067l21.700806 0l0 79.18111l-21.700806 0z" fill-rule="evenodd"/><path fill="#efefef" d="m81.55157 46.29134l0 -21.700788l193.5433 0l0 21.700788z" fill-rule="evenodd"/><path fill="#efefef" d="m75.97584 175.2427l0 -21.70079l193.5433 0l0 21.70079z" fill-rule="evenodd"/></g></svg>