<svg version="1.1" viewBox="0.0 0.0 345.6010498687664 345.6010498687664" fill="none" stroke="none" stroke-linecap="square" stroke-miterlimit="10" xmlns:xlink="http://www.w3.org/1999/xlink" xmlns="http://www.w3.org/2000/svg"><clipPath id="p.0"><path d="m0 0l345.60104 0l0 345.60104l-345.60104 0l0 -345.60104z" clip-rule="nonzero"/></clipPath><g clip-path="url(#p.0)"><path fill="#000000" fill-opacity="0.0" d="m0 0l345.60104 0l0 345.60104l-345.60104 0z" fill-rule="evenodd"/><path fill="#e2cdb2" d="m60.78268 56.411022l9.259846 0l0 57.03937l-9.259846 0z" fill-rule="evenodd"/><path stroke="#000000" stroke-width="4.0" stroke-linejoin="round" stroke-linecap="butt" d="m60.78268 56.411022l9.259846 0l0 57.03937l-9.259846 0z" fill-rule="evenodd"/><path fill="#e2cdb2" d="m275.64316 56.411022l9.259857 0l0 57.03937l-9.259857 0z" fill-rule="evenodd"/><path stroke="#000000" stroke-width="4.0" stroke-linejoin="round" stroke-linecap="butt" d="m275.64316 56.411022l9.259857 0l0 57.03937l-9.259857 0z" fill-rule="evenodd"/><path fill="#e2cdb2" d="m106.03878 157.8229l0 0c-24.89621 0.07121277 -45.1465 -19.481049 -45.250435 -43.690666l9.29332 -0.037727356l0 0c0.08313751 19.080826 16.161629 34.490753 35.929 34.435043z" fill-rule="evenodd"/><path stroke="#000000" stroke-width="4.0" stroke-linejoin="round" stroke-linecap="butt" d="m106.03878 157.8229l0 0c-24.89621 0.07121277 -45.1465 -19.481049 -45.250435 -43.690666l9.29332 -0.037727356l0 0c0.08313751 19.080826 16.161629 34.490753 35.929 34.435043z" fill-rule="evenodd"/><path fill="#e2cdb2" d="m239.17854 148.56325l0 9.259842l-132.75592 0l0 -9.259842z" fill-rule="evenodd"/><path stroke="#000000" stroke-width="4.0" stroke-linejoin="round" stroke-linecap="butt" d="m239.17854 148.56325l0 9.259842l-132.75592 0l0 -9.259842z" fill-rule="evenodd"/><path fill="#e2cdb2" d="m239.65262 157.8229l0 0c24.89621 0.07121277 45.146484 -19.481049 45.250427 -43.690666l-9.293304 -0.037727356l0 0c-0.0831604 19.080826 -16.161652 34.490753 -35.929016 34.435043z" fill-rule="evenodd"/><path stroke="#000000" stroke-width="4.0" stroke-linejoin="round" stroke-linecap="butt" d="m239.65262 157.8229l0 0c24.89621 0.07121277 45.146484 -19.481049 45.250427 -43.690666l-9.293304 -0.037727356l0 0c-0.0831604 19.080826 -16.161652 34.490753 -35.929016 34.435043z" fill-rule="evenodd"/><path fill="#e2cdb2" d="m239.60799 12.03326l0 0c24.896225 -0.07121372 45.1465 19.481052 45.250443 43.690662l-9.293335 0.037727356l0 0c-0.08312988 -19.080818 -16.161621 -34.490753 -35.928986 -34.435036z" fill-rule="evenodd"/><path stroke="#000000" stroke-width="4.0" stroke-linejoin="round" stroke-linecap="butt" d="m239.60799 12.03326l0 0c24.896225 -0.07121372 45.1465 19.481052 45.250443 43.690662l-9.293335 0.037727356l0 0c-0.08312988 -19.080818 -16.161621 -34.490753 -35.928986 -34.435036z" fill-rule="evenodd"/><path fill="#e2cdb2" d="m106.46823 21.292913l0 -9.259843l132.7559 0l0 9.259843z" fill-rule="evenodd"/><path stroke="#000000" stroke-width="4.0" stroke-linejoin="round" stroke-linecap="butt" d="m106.46823 21.292913l0 -9.259843l132.7559 0l0 9.259843z" fill-rule="evenodd"/><path fill="#e2cdb2" d="m105.99416 12.03326l0 0c-24.896217 -0.07121372 -45.1465 19.481052 -45.25044 43.690662l9.293316 0.037727356l0 0c0.08313751 -19.080818 16.161636 -34.490753 35.92901 -34.435036z" fill-rule="evenodd"/><path stroke="#000000" stroke-width="4.0" stroke-linejoin="round" stroke-linecap="butt" d="m105.99416 12.03326l0 0c-24.896217 -0.07121372 -45.1465 19.481052 -45.25044 43.690662l9.293316 0.037727356l0 0c0.08313751 -19.080818 16.161636 -34.490753 35.92901 -34.435036z" fill-rule="evenodd"/><path fill="#e2cdb2" d="m277.45142 45.340157l10.708679 0l0 79.18111l-10.708679 0z" fill-rule="evenodd"/><path fill="#e2cdb2" d="m268.30447 150.32704l0 9.952744l-193.54332 0l0 -9.952744z" fill-rule="evenodd"/><path fill="#e2cdb2" d="m57.44093 45.340157l10.70866 0l0 79.18111l-10.70866 0z" fill-rule="evenodd"/><path fill="#e2cdb2" d="m59.677166 13.040945l0 38.204727l34.519688 -38.204727z" fill-rule="evenodd"/><path fill="#e2cdb2" d="m265.1705 9.6l0 9.952755l-177.10237 0l0 -9.952755z" fill-rule="evenodd"/><path fill="#e2cdb2" d="m286.01312 13.040945l0 38.204727l-34.519684 -38.204727z" fill-rule="evenodd"/><path fill="#e2cdb2" d="m59.677166 156.82047l0 -38.20472l34.519688 38.20472z" fill-rule="evenodd"/><path fill="#e2cdb2" d="m286.01312 156.82047l0 -38.20472l-34.519684 38.20472z" fill-rule="evenodd"/></g></svg>