<svg version="1.1" viewBox="0.0 0.0 345.6010498687664 345.6010498687664" fill="none" stroke="none" stroke-linecap="square" stroke-miterlimit="10" xmlns:xlink="http://www.w3.org/1999/xlink" xmlns="http://www.w3.org/2000/svg"><clipPath id="p.0"><path d="m0 0l345.60104 0l0 345.60104l-345.60104 0l0 -345.60104z" clip-rule="nonzero"/></clipPath><g clip-path="url(#p.0)"><path fill="#000000" fill-opacity="0.0" d="m0 0l345.60104 0l0 345.60104l-345.60104 0z" fill-rule="evenodd"/><g filter="url(#shadowFilter-p.1)"><use xlink:href="#p.1" transform="matrix(1.0 0.0 0.0 1.0 0.0 2.0)"/></g><defs><filter id="shadowFilter-p.1" filterUnits="userSpaceOnUse"><feGaussianBlur in="SourceAlpha" stdDeviation="2.0" result="blur"/><feComponentTransfer in="blur" color-interpolation-filters="sRGB"><feFuncR type="linear" slope="0" intercept="0.0"/><feFuncG type="linear" slope="0" intercept="0.0"/><feFuncB type="linear" slope="0" intercept="0.0"/><feFuncA type="linear" slope="0.5" intercept="0"/></feComponentTransfer></filter></defs><g id="p.1"><path fill="#bcae9d" d="m65.35171 181.40402l0 0c0 -4.660248 3.7778854 -8.438141 8.4381485 -8.438141l198.02133 0c2.2379456 0 4.3842163 0.88900757 5.966675 2.4714813c1.5824585 1.5824585 2.471466 3.7287292 2.471466 5.9666595l0 138.49377c0 4.6602783 -3.7778625 8.438171 -8.438141 8.438171l-198.02133 0c-4.660263 0 -8.4381485 -3.777893 -8.4381485 -8.438171z" fill-rule="evenodd"/></g><g filter="url(#shadowFilter-p.2)"><use xlink:href="#p.2" transform="matrix(1.0 0.0 0.0 1.0 0.0 2.0)"/></g><defs><filter id="shadowFilter-p.2" filterUnits="userSpaceOnUse"><feGaussianBlur in="SourceAlpha" stdDeviation="2.0" result="blur"/><feComponentTransfer in="blur" color-interpolation-filters="sRGB"><feFuncR type="linear" slope="0" intercept="0.0"/><feFuncG type="linear" slope="0" intercept="0.0"/><feFuncB type="linear" slope="0" intercept="0.0"/><feFuncA type="linear" slope="0.5" intercept="0"/></feComponentTransfer></filter></defs><g id="p.2"><path fill="#c1a785" d="m46.800526 184.12706l-42.0 -16.954178q22.98576 -4.3602295 45.97152 -7.527313l0 -7.2387238q122.02847 -16.81369 244.05696 0l0 7.2387238q22.985748 3.1670837 45.971527 7.527313l-42.0 16.954178l42.0 30.89656q-43.98578 -8.34375 -87.97153 -12.31839l42.0 -2.447647q-122.02849 -16.813675 -244.05696 0l41.999996 2.447647q-43.985756 3.97464 -87.97152 12.31839z" fill-rule="evenodd"/><path fill="#9a856a" d="m92.77204 195.4665l0 7.2387238l-41.999996 -2.447647q122.02847 -16.813675 244.05696 0l-42.0 2.447647l0 -7.2387238q-80.02849 -7.2315216 -160.05698 0z" fill-rule="evenodd"/><path fill="#000000" fill-opacity="0.0" d="m4.8005247 215.02362l42.0 -30.89656l-42.0 -16.954178q22.98576 -4.3602295 45.97152 -7.527313l0 -7.2387238q122.02847 -16.81369 244.05696 0l0 7.2387238q22.985748 3.1670837 45.971527 7.527313l-42.0 16.954178l42.0 30.89656q-43.98578 -8.34375 -87.97153 -12.31839l42.0 -2.447647q-122.02849 -16.813675 -244.05696 0l41.999996 2.447647q-43.985756 3.97464 -87.97152 12.31839zm45.97152 -14.766037l0 -40.612015m244.05696 0l0 40.612015m-202.05698 -4.7910767l0 7.2387238m160.05698 0l0 -7.2387238" fill-rule="evenodd"/><path stroke="#000000" stroke-width="3.0" stroke-linejoin="round" stroke-linecap="butt" d="m4.8005247 215.02362l42.0 -30.89656l-42.0 -16.954178q22.98576 -4.3602295 45.97152 -7.527313l0 -7.2387238q122.02847 -16.81369 244.05696 0l0 7.2387238q22.985748 3.1670837 45.971527 7.527313l-42.0 16.954178l42.0 30.89656q-43.98578 -8.34375 -87.97153 -12.31839l42.0 -2.447647q-122.02849 -16.813675 -244.05696 0l41.999996 2.447647q-43.985756 3.97464 -87.97152 12.31839zm45.97152 -14.766037l0 -40.612015m244.05696 0l0 40.612015m-202.05698 -4.7910767l0 7.2387238m160.05698 0l0 -7.2387238" fill-rule="evenodd"/></g><defs><linearGradient id="p.3" gradientUnits="userSpaceOnUse" gradientTransform="matrix(8.427769128965904 0.0 0.0 8.427769128965904 0.0 0.0)" spreadMethod="pad" x1="40.43780978326346" y1="25.514141310282987" x2="40.43790223945953" y2="17.086372181824224"><stop offset="0.0" stop-color="#ffffff" stop-opacity="0.5019608"/><stop offset="0.31" stop-color="#ffffff" stop-opacity="0.0"/><stop offset="0.67" stop-color="#000000" stop-opacity="0.0"/><stop offset="1.0" stop-color="#000000" stop-opacity="0.14509805"/></linearGradient></defs><path fill="url(#p.3)" d="m46.800526 184.12706l-42.0 -16.954178q22.98576 -4.3602295 45.97152 -7.527313l0 -7.2387238q122.02847 -16.81369 244.05696 0l0 7.2387238q22.985748 3.1670837 45.971527 7.527313l-42.0 16.954178l42.0 30.89656q-43.98578 -8.34375 -87.97153 -12.31839l42.0 -2.447647q-122.02849 -16.813675 -244.05696 0l41.999996 2.447647q-43.985756 3.97464 -87.97152 12.31839z" fill-rule="evenodd"/><defs><linearGradient id="p.4" gradientUnits="userSpaceOnUse" gradientTransform="matrix(8.427769128965904 0.0 0.0 8.427769128965904 0.0 0.0)" spreadMethod="pad" x1="40.43780978326346" y1="25.514141310282987" x2="40.43790223945953" y2="17.086372181824224"><stop offset="0.0" stop-color="#ffffff" stop-opacity="0.5019608"/><stop offset="0.31" stop-color="#ffffff" stop-opacity="0.0"/><stop offset="0.67" stop-color="#000000" stop-opacity="0.0"/><stop offset="1.0" stop-color="#000000" stop-opacity="0.14509805"/></linearGradient></defs><path fill="url(#p.4)" d="m92.77204 195.4665l0 7.2387238l-41.999996 -2.447647q122.02847 -16.813675 244.05696 0l-42.0 2.447647l0 -7.2387238q-80.02849 -7.2315216 -160.05698 0z" fill-rule="evenodd"/><path fill="#000000" fill-opacity="0.0" d="m4.8005247 215.02362l42.0 -30.89656l-42.0 -16.954178q22.98576 -4.3602295 45.97152 -7.527313l0 -7.2387238q122.02847 -16.81369 244.05696 0l0 7.2387238q22.985748 3.1670837 45.971527 7.527313l-42.0 16.954178l42.0 30.89656q-43.98578 -8.34375 -87.97153 -12.31839l42.0 -2.447647q-122.02849 -16.813675 -244.05696 0l41.999996 2.447647q-43.985756 3.97464 -87.97152 12.31839zm45.97152 -14.766037l0 -40.612015m244.05696 0l0 40.612015m-202.05698 -4.7910767l0 7.2387238m160.05698 0l0 -7.2387238" fill-rule="evenodd"/><path fill="#000000" fill-opacity="0.2" d="m92.77204 195.4665l0 7.2387238l-41.999996 -2.447647q122.02847 -16.813675 244.05696 0l-42.0 2.447647l0 -7.2387238q-80.02849 -7.2315216 -160.05698 0z" fill-rule="evenodd"/><path stroke="#000000" stroke-width="3.0" stroke-linejoin="round" stroke-linecap="butt" d="m4.8005247 215.02362l42.0 -30.89656l-42.0 -16.954178q22.98576 -4.3602295 45.97152 -7.527313l0 -7.2387238q122.02847 -16.81369 244.05696 0l0 7.2387238q22.985748 3.1670837 45.971527 7.527313l-42.0 16.954178l42.0 30.89656q-43.98578 -8.34375 -87.97153 -12.31839l42.0 -2.447647q-122.02849 -16.813675 -244.05696 0l41.999996 2.447647q-43.985756 3.97464 -87.97152 12.31839zm45.97152 -14.766037l0 -40.612015m244.05696 0l0 40.612015m-202.05698 -4.7910767l0 7.2387238m160.05698 0l0 -7.2387238" fill-rule="evenodd"/></g></svg>