<svg version="1.1" viewBox="0.0 0.0 345.6010498687664 345.6010498687664" fill="none" stroke="none" stroke-linecap="square" stroke-miterlimit="10" xmlns:xlink="http://www.w3.org/1999/xlink" xmlns="http://www.w3.org/2000/svg"><clipPath id="p.0"><path d="m0 0l345.60104 0l0 345.60104l-345.60104 0l0 -345.60104z" clip-rule="nonzero"/></clipPath><g clip-path="url(#p.0)"><path fill="#000000" fill-opacity="0.0" d="m0 0l345.60104 0l0 345.60104l-345.60104 0z" fill-rule="evenodd"/><path fill="#cccccc" d="m65.29396 197.48605l0 0c0 -13.542114 10.978058 -24.520172 24.52018 -24.520172l165.8573 0c6.5031586 0 12.739944 2.5833588 17.338364 7.181793c4.5984497 4.598419 7.181793 10.83522 7.181793 17.338379l0 98.07776c0 13.542114 -10.978058 24.520172 -24.520157 24.520172l-165.8573 0c-13.542122 0 -24.52018 -10.978058 -24.52018 -24.520172z" fill-rule="evenodd"/><path fill="#d2b48c" d="m46.800526 184.12706l-42.0 -16.954178q22.98576 -4.3602295 45.97152 -7.527313l0 -7.2387238q122.02847 -16.81369 244.05696 0l0 7.2387238q22.985748 3.1670837 45.971527 7.527313l-42.0 16.954178l42.0 30.89656q-43.98578 -8.34375 -87.97153 -12.31839l42.0 -2.447647q-122.02849 -16.813675 -244.05696 0l41.999996 2.447647q-43.985756 3.97464 -87.97152 12.31839z" fill-rule="evenodd"/><path fill="#a78f6f" d="m92.77204 195.4665l0 7.2387238l-41.999996 -2.447647q122.02847 -16.813675 244.05696 0l-42.0 2.447647l0 -7.2387238q-80.02849 -7.2315216 -160.05698 0z" fill-rule="evenodd"/><path fill="#000000" fill-opacity="0.0" d="m4.8005247 215.02362l42.0 -30.89656l-42.0 -16.954178q22.98576 -4.3602295 45.97152 -7.527313l0 -7.2387238q122.02847 -16.81369 244.05696 0l0 7.2387238q22.985748 3.1670837 45.971527 7.527313l-42.0 16.954178l42.0 30.89656q-43.98578 -8.34375 -87.97153 -12.31839l42.0 -2.447647q-122.02849 -16.813675 -244.05696 0l41.999996 2.447647q-43.985756 3.97464 -87.97152 12.31839zm45.97152 -14.766037l0 -40.612015m244.05696 0l0 40.612015m-202.05698 -4.7910767l0 7.2387238m160.05698 0l0 -7.2387238" fill-rule="evenodd"/><path stroke="#000000" stroke-width="3.0" stroke-linejoin="round" stroke-linecap="butt" d="m4.8005247 215.02362l42.0 -30.89656l-42.0 -16.954178q22.98576 -4.3602295 45.97152 -7.527313l0 -7.2387238q122.02847 -16.81369 244.05696 0l0 7.2387238q22.985748 3.1670837 45.971527 7.527313l-42.0 16.954178l42.0 30.89656q-43.98578 -8.34375 -87.97153 -12.31839l42.0 -2.447647q-122.02849 -16.813675 -244.05696 0l41.999996 2.447647q-43.985756 3.97464 -87.97152 12.31839zm45.97152 -14.766037l0 -40.612015m244.05696 0l0 40.612015m-202.05698 -4.7910767l0 7.2387238m160.05698 0l0 -7.2387238" fill-rule="evenodd"/></g></svg>